<svg width="50" height="50" viewBox="0 0 50 50" fill="none" xmlns="http://www.w3.org/2000/svg">
<path d="M45.4625 15.4813C45.2709 15.2043 45.015 14.978 44.7167 14.8216C44.4185 14.6652 44.0868 14.5834 43.75 14.5833H15.2771L12.8729 8.8125C12.5577 8.05255 12.0239 7.40331 11.3392 6.94711C10.6545 6.4909 9.84981 6.24828 9.02707 6.25H4.16666V10.4167H9.02707L18.9104 34.1354C19.0687 34.5149 19.3358 34.8391 19.678 35.0671C20.0201 35.2951 20.4221 35.4167 20.8333 35.4167H37.5C38.3687 35.4167 39.1458 34.8771 39.4521 34.0667L45.7021 17.4C45.8202 17.0846 45.8601 16.7453 45.8184 16.4111C45.7766 16.077 45.6545 15.7579 45.4625 15.4813V15.4813Z" fill="white"/>
<path d="M21.875 43.75C23.6009 43.75 25 42.3509 25 40.625C25 38.8991 23.6009 37.5 21.875 37.5C20.1491 37.5 18.75 38.8991 18.75 40.625C18.75 42.3509 20.1491 43.75 21.875 43.75Z" fill="white"/>
<path d="M36.4583 43.75C38.1842 43.75 39.5833 42.3509 39.5833 40.625C39.5833 38.8991 38.1842 37.5 36.4583 37.5C34.7324 37.5 33.3333 38.8991 33.3333 40.625C33.3333 42.3509 34.7324 43.75 36.4583 43.75Z" fill="white"/>
</svg>
