<svg width="40" height="40" viewBox="0 0 40 40" fill="none" xmlns="http://www.w3.org/2000/svg">
<path d="M36.9726 19.7266L20.8828 3.64844C20.7669 3.53236 20.6293 3.44027 20.4779 3.37744C20.3264 3.3146 20.164 3.28226 20 3.28226C19.836 3.28226 19.6736 3.3146 19.5221 3.37744C19.3706 3.44027 19.233 3.53236 19.1172 3.64844L3.02733 19.7266C2.55858 20.1953 2.29295 20.832 2.29295 21.4961C2.29295 22.875 3.41405 23.9961 4.79295 23.9961H6.48827V35.4688C6.48827 36.1602 7.04686 36.7188 7.73827 36.7188H17.5V27.9688H21.875V36.7188H32.2617C32.9531 36.7188 33.5117 36.1602 33.5117 35.4688V23.9961H35.207C35.8711 23.9961 36.5078 23.7344 36.9765 23.2617C37.9492 22.2852 37.9492 20.7031 36.9726 19.7266V19.7266Z" fill="white"/>
</svg>
