<svg width="50" height="50" viewBox="0 0 50 50" fill="none" xmlns="http://www.w3.org/2000/svg">
<path d="M46.4844 12.1094C46.4844 10.0781 44.7657 7.26562 41.4063 6.71874C38.5938 6.24999 35.8594 7.18749 35.1563 9.45312C34.8438 6.40624 32.1094 5.39062 28.8282 5.46874C25.625 5.54687 22.9688 7.03124 22.6563 9.92187C21.875 8.20312 19.7657 7.65624 17.3438 7.65624H17.2657C14.8438 7.81249 12.8125 8.59374 12.0313 10.3906C11.3282 9.99999 10.3125 9.92187 8.75003 10.4687C6.87503 11.0937 3.59378 13.9062 2.18753 19.7656C1.09378 24.2187 2.57815 30.4687 2.57815 30.4687C2.4219 33.2812 4.6094 35.625 7.34378 35.7812C9.45315 35.8594 11.3282 34.7656 12.2657 33.0469V33.9844C12.3438 37.1094 14.9219 39.5312 18.0469 39.4531H18.125C20.625 39.375 22.6563 37.7344 23.3594 35.5469C23.9063 38.5937 26.5625 40.8594 29.6875 40.7812C33.125 40.7031 35.8594 37.8125 35.7813 34.375C36.25 37.1875 38.75 39.2969 41.6407 39.2187H41.7188C44.9219 39.1406 48.3594 36.0156 48.3594 32.8125C48.4375 32.8125 46.6407 23.5937 46.4844 12.1094Z" fill="#2AED57"/>
<path d="M48.2813 33.9844C47.2657 35.2344 45.7032 36.1719 43.9063 36.1719H43.8282C43.5157 36.1719 43.2032 36.1719 42.8907 36.0937C42.7344 36.0937 42.5782 36.0156 42.4219 36.0156C40.3907 35.7031 38.125 34.6875 36.875 33.2031C37.1875 31.4062 37.1875 29.6094 37.1875 27.8125C37.1875 25.8594 37.0313 23.9844 36.9532 22.1094C36.875 20.2344 36.7969 18.3594 36.875 16.4063C36.4844 17.2656 36.1719 18.2031 36.0157 19.2187C35.7813 20.1562 35.7032 21.1719 35.625 22.1094C35.4688 24.0625 35.4688 25.9375 35.4688 27.8906C35.4688 29.7656 35.5469 31.6406 35.4688 33.5156C35.3907 34.4531 35.3907 35.8594 35.0782 36.4844C34.4532 37.8125 32.5782 38.125 31.0157 38.125C28.2813 38.2031 25.3907 36.5625 24.2188 34.1406V34.0625C24.2969 33.2031 24.4532 32.4219 24.5313 31.5625C24.6875 29.9219 24.8438 28.2031 24.8438 26.4844C24.8438 24.7656 24.7657 23.0469 24.5313 21.4062C24.4532 20.5469 24.2969 19.6875 24.0625 18.9063C23.8282 18.0469 23.5938 17.2656 23.2813 16.4844C23.2032 17.3438 23.2032 18.2031 23.2032 19.0625C23.2032 19.9219 23.2032 20.7031 23.125 21.5625C23.125 23.2031 23.0469 24.9219 23.0469 26.5625C23.0469 28.2031 23.0469 29.9219 23.125 31.5625C23.125 32.2656 23.2032 34.2969 23.2813 35.2344C22.2657 36.25 20.9375 36.875 19.375 36.875H19.2969C16.7188 36.9531 14.0625 34.8437 13.2032 32.4219V32.1875C13.2813 30.7031 13.4375 29.2969 13.5157 27.8125C13.5938 26.3281 13.5938 24.8437 13.5157 23.3594C13.3594 22.6562 13.2813 21.875 13.125 21.0937C13.0469 20.7031 12.9688 20.3125 12.8125 20C12.7344 19.8437 12.6563 19.6094 12.5782 19.4531C12.5 19.2969 12.3438 19.1406 12.2657 18.9844C12.3438 19.1406 12.3438 19.375 12.3438 19.5312V20.0781C12.3438 20.4688 12.3438 20.7812 12.2657 21.1719C12.1875 21.875 12.1094 22.6562 12.0313 23.3594C11.875 24.8437 11.7188 26.25 11.6407 27.7344C11.5625 29.2187 11.5625 30.7031 11.7188 32.1875V32.3437C10.7813 32.9687 9.68754 33.2031 8.43754 33.2031C0.703164 33.2031 2.34379 21.7187 3.43754 17.1875C3.59379 16.4844 3.82816 15.7812 4.06254 15.1562C3.35941 16.25 2.73441 17.7344 2.26566 19.7656C1.17191 24.2187 0.703163 35.7812 7.42191 35.7812C9.37504 35.7812 11.0938 34.9219 12.1094 33.4375C12.1875 33.75 12.3438 39.4531 18.125 39.4531H18.2032C19.0543 39.4211 19.8878 39.2013 20.6441 38.8097C21.4004 38.418 22.0608 37.8641 22.5782 37.1875C22.5 37.5781 22.4219 38.125 22.3438 38.8281C21.9532 43.0469 25.3125 45.1562 27.4219 44.4531C33.0469 42.4219 37.7344 42.1875 41.4063 42.3437C43.9063 42.4219 45.5469 40.7031 45.8594 37.8125C47.1094 36.7187 48.0469 35.3906 48.2813 33.9844" fill="#28A745"/>
</svg>
